<svg width="240" height="72" viewBox="0 0 240 72" fill="none" xmlns="http://www.w3.org/2000/svg">
  <rect x="8" y="8" width="56" height="56" rx="16" fill="#1D9BF0" fill-opacity="0.12"/>
  <path d="M20 28C20 23.5817 23.5817 20 28 20H34L40 26H48C52.4183 26 56 29.5817 56 34V44C56 48.4183 52.4183 52 48 52H28C23.5817 52 20 48.4183 20 44V28Z" stroke="#0F1419" stroke-width="4"/>
  <path d="M28 35H46" stroke="#0F1419" stroke-width="4" stroke-linecap="round"/>
  <path d="M28 43H40" stroke="#0F1419" stroke-width="4" stroke-linecap="round"/>
  <path d="M38 20V28H46" stroke="#0F1419" stroke-width="4" stroke-linecap="round" stroke-linejoin="round"/>
  <path d="M84.36 46V26.04H91.48C96.18 26.04 98.9 28.84 98.9 33.2C98.9 37.56 96.18 40.36 91.48 40.36H88.4V46H84.36ZM88.4 36.96H91.18C93.44 36.96 94.82 35.58 94.82 33.2C94.82 30.82 93.44 29.44 91.18 29.44H88.4V36.96ZM107.745 46.3C103.365 46.3 100.525 43.2 100.525 38.42C100.525 33.68 103.345 30.56 107.685 30.56C112.045 30.56 114.665 33.44 114.665 38.24V39.5H104.345C104.485 41.78 105.805 43.22 107.825 43.22C109.365 43.22 110.425 42.54 110.865 41.28H114.505C113.945 44.42 111.385 46.3 107.745 46.3ZM104.405 36.98H110.885C110.785 34.96 109.545 33.64 107.665 33.64C105.785 33.64 104.605 34.9 104.405 36.98ZM117.27 46V30.86H120.89L120.97 33.1C121.85 31.48 123.27 30.56 125.23 30.56C125.77 30.56 126.21 30.62 126.61 30.74V34.24C126.11 34.08 125.57 34 124.95 34C122.41 34 121.17 35.44 121.17 38.3V46H117.27ZM133.915 46.3C129.775 46.3 127.175 43.96 126.895 40.58H130.655C130.895 42.24 132.135 43.26 133.995 43.26C135.535 43.26 136.455 42.58 136.455 41.5C136.455 40.4 135.635 40 133.295 39.46L131.875 39.14C128.855 38.46 127.375 37.18 127.375 34.74C127.375 32.06 129.695 30.56 133.255 30.56C136.955 30.56 139.255 32.46 139.575 35.74H135.875C135.595 34.34 134.655 33.56 133.155 33.56C131.815 33.56 130.975 34.18 130.975 35.2C130.975 36.18 131.655 36.56 133.915 37.08L135.355 37.4C138.615 38.14 140.095 39.34 140.095 41.92C140.095 44.66 137.675 46.3 133.915 46.3ZM149.024 46.3C144.604 46.3 141.724 43.12 141.724 38.42C141.724 33.7 144.624 30.56 149.024 30.56C153.424 30.56 156.344 33.7 156.344 38.42C156.344 43.12 153.444 46.3 149.024 46.3ZM149.024 43.14C151.224 43.14 152.444 41.34 152.444 38.42C152.444 35.48 151.224 33.7 149.024 33.7C146.824 33.7 145.624 35.48 145.624 38.42C145.624 41.34 146.824 43.14 149.024 43.14ZM158.889 46V30.86H162.569L162.629 32.84C163.709 31.14 165.289 30.56 167.129 30.56C170.449 30.56 172.329 32.66 172.329 36.2V46H168.429V36.9C168.429 34.86 167.489 33.8 165.629 33.8C163.469 33.8 162.789 35.34 162.789 37.46V46H158.889ZM181.408 46.28C178.448 46.28 176.408 44.6 176.408 42.02C176.408 39.2 178.408 37.74 181.988 37.26L186.248 36.7V36.22C186.248 34.5 185.328 33.54 183.588 33.54C181.948 33.54 180.968 34.36 180.768 35.8H177.168C177.388 32.66 179.888 30.56 183.688 30.56C187.668 30.56 190.108 32.48 190.108 36.12V42.38C190.108 43.38 190.528 43.86 191.368 43.86C191.588 43.86 191.828 43.84 192.048 43.78V45.82C191.388 46.1 190.628 46.24 189.848 46.24C187.868 46.24 186.748 45.48 186.468 43.96C185.548 45.52 183.788 46.28 181.408 46.28ZM182.548 43.48C184.708 43.48 186.248 42.2 186.248 40.28V39.2L183.208 39.62C181.428 39.88 180.368 40.54 180.368 41.82C180.368 42.9 181.248 43.48 182.548 43.48ZM194.438 46V25H198.338V46H194.438ZM208.047 46.3C203.667 46.3 200.827 43.2 200.827 38.42C200.827 33.68 203.647 30.56 207.987 30.56C212.347 30.56 214.967 33.44 214.967 38.24V39.5H204.647C204.787 41.78 206.107 43.22 208.127 43.22C209.667 43.22 210.727 42.54 211.167 41.28H214.807C214.247 44.42 211.687 46.3 208.047 46.3Z" fill="#0F1419"/>
  <path d="M204.707 36.98H211.187C211.087 34.96 209.847 33.64 207.967 33.64C206.087 33.64 204.907 34.9 204.707 36.98Z" fill="#0F1419"/>
</svg>
